<svg xmlns="http://www.w3.org/2000/svg" width="300" height="300" fill="none" viewBox="0 0 530 692">
  <path fill="#181D3D" d="M677.785 73.656c61.612 54.268 81.582 126.527 104.102 189.496 22.308 62.969 47.165 116.794 57.15 179.173 9.985 62.526 4.887 133.753-49.077 173.569-53.963 39.669-157.003 48.075-251.544 59.577-94.33 11.503-180.373 26.102-247.083 7.079-66.923-18.876-114.513-71.522-162.527-118.859-48.015-47.485-96.667-89.513-117.487-139.209-20.82-49.55-13.81-106.619 28.469-144.814 42.49-38.046 120.461-57.217 188.021-109.568 67.56-52.203 125.135-137.735 205.23-162.214 80.307-24.627 183.347 11.502 244.746 65.77Z"/>
  <path fill="#fff" d="M152.773 316.318h-11.364c-.151-1.166-.462-2.22-.932-3.159a7.688 7.688 0 0 0-1.863-2.409c-.773-.667-1.69-1.174-2.75-1.523-1.046-.363-2.205-.545-3.478-.545-2.257 0-4.204.553-5.841 1.659-1.621 1.106-2.871 2.704-3.75 4.795-.863 2.091-1.295 4.622-1.295 7.591 0 3.091.439 5.682 1.318 7.773.894 2.076 2.144 3.644 3.75 4.705 1.621 1.045 3.538 1.568 5.75 1.568 1.243 0 2.371-.159 3.387-.478 1.03-.318 1.931-.78 2.704-1.386a7.656 7.656 0 0 0 1.932-2.25c.515-.894.871-1.901 1.068-3.023l11.364.069c-.197 2.06-.796 4.09-1.796 6.09-.985 2-2.341 3.826-4.068 5.478-1.727 1.636-3.833 2.939-6.318 3.909-2.47.97-5.303 1.454-8.5 1.454-4.212 0-7.985-.924-11.318-2.772-3.318-1.864-5.94-4.576-7.864-8.137-1.924-3.56-2.886-7.894-2.886-13 0-5.121.977-9.462 2.932-13.022 1.954-3.561 4.598-6.266 7.931-8.114 3.334-1.849 7.069-2.773 11.205-2.773 2.818 0 5.424.394 7.818 1.182 2.394.773 4.5 1.909 6.318 3.409 1.818 1.485 3.296 3.311 4.432 5.477 1.136 2.167 1.841 4.644 2.114 7.432Zm22.733 30.341c-3.667 0-6.818-.75-9.455-2.25-2.621-1.515-4.644-3.621-6.068-6.318-1.409-2.712-2.114-5.856-2.114-9.432 0-3.591.705-6.735 2.114-9.432 1.424-2.712 3.447-4.818 6.068-6.318 2.637-1.515 5.788-2.273 9.455-2.273 3.666 0 6.81.758 9.432 2.273 2.636 1.5 4.659 3.606 6.068 6.318 1.424 2.697 2.136 5.841 2.136 9.432 0 3.576-.712 6.72-2.136 9.432-1.409 2.697-3.432 4.803-6.068 6.318-2.622 1.5-5.766 2.25-9.432 2.25Zm.068-8.386c1.333 0 2.462-.409 3.386-1.228.924-.818 1.629-1.954 2.114-3.409.5-1.454.75-3.136.75-5.045 0-1.939-.25-3.636-.75-5.091-.485-1.455-1.19-2.591-2.114-3.409-.924-.818-2.053-1.227-3.386-1.227-1.379 0-2.546.409-3.5 1.227-.94.818-1.659 1.954-2.159 3.409-.485 1.455-.727 3.152-.727 5.091 0 1.909.242 3.591.727 5.045.5 1.455 1.219 2.591 2.159 3.409.954.819 2.121 1.228 3.5 1.228Zm34.375-12.182V346h-11.114v-34.909h10.568v6.409h.387c.773-2.136 2.091-3.811 3.954-5.023 1.864-1.227 4.084-1.841 6.659-1.841 2.455 0 4.584.553 6.387 1.659 1.818 1.091 3.227 2.622 4.227 4.591 1.015 1.955 1.515 4.243 1.5 6.864V346h-11.114v-20.068c.016-1.94-.477-3.455-1.477-4.546-.985-1.091-2.356-1.636-4.114-1.636-1.166 0-2.196.258-3.09.773-.879.5-1.561 1.219-2.046 2.159-.47.939-.712 2.076-.727 3.409Zm49.153-15v8.182H237.08v-8.182h22.022Zm-17.409-8.364h11.114v32.296c0 .682.106 1.235.318 1.659.227.409.553.704.977.886.425.167.932.25 1.523.25.424 0 .871-.038 1.341-.113.485-.091.848-.167 1.091-.228l1.682 8.023c-.531.152-1.281.341-2.25.568-.955.227-2.099.371-3.432.432-2.606.121-4.841-.182-6.705-.909-1.848-.743-3.265-1.894-4.25-3.455-.969-1.56-1.439-3.522-1.409-5.886v-33.523Zm32.921 43.864c-2.228 0-4.205-.371-5.932-1.114-1.712-.757-3.068-1.894-4.068-3.409-.985-1.53-1.478-3.447-1.478-5.75 0-1.939.341-3.576 1.023-4.909a8.74 8.74 0 0 1 2.818-3.25c1.197-.833 2.576-1.462 4.137-1.886 1.56-.44 3.227-.735 5-.887 1.984-.181 3.583-.371 4.795-.568 1.212-.212 2.091-.507 2.636-.886.561-.394.841-.947.841-1.659v-.114c0-1.167-.401-2.068-1.204-2.704-.803-.637-1.887-.955-3.25-.955-1.47 0-2.652.318-3.546.955-.894.636-1.462 1.515-1.704 2.636l-10.25-.364c.303-2.121 1.083-4.015 2.341-5.682 1.272-1.681 3.015-3 5.227-3.954 2.227-.97 4.902-1.455 8.023-1.455 2.227 0 4.28.266 6.159.796 1.879.515 3.515 1.273 4.909 2.273 1.394.984 2.47 2.197 3.227 3.636.773 1.439 1.159 3.083 1.159 4.932V346h-10.454v-4.864h-.273a9.908 9.908 0 0 1-2.386 3c-.955.819-2.084 1.432-3.387 1.841-1.288.409-2.742.614-4.363.614Zm3.431-7.273c1.197 0 2.273-.242 3.228-.727.969-.485 1.742-1.152 2.318-2 .576-.864.864-1.864.864-3v-3.318a6.656 6.656 0 0 1-1.16.454c-.439.137-.924.265-1.454.387-.53.121-1.076.227-1.636.318-.561.091-1.099.174-1.614.25-1.046.166-1.939.424-2.682.773-.727.348-1.288.803-1.682 1.363-.379.546-.568 1.197-.568 1.955 0 1.151.409 2.03 1.227 2.636.834.606 1.887.909 3.159.909Zm40.523 7.341c-3.682 0-6.841-.757-9.477-2.273-2.621-1.515-4.636-3.621-6.046-6.318-1.409-2.712-2.113-5.848-2.113-9.409 0-3.576.704-6.712 2.113-9.409 1.425-2.712 3.447-4.826 6.069-6.341 2.636-1.515 5.78-2.273 9.431-2.273 3.228 0 6.038.584 8.432 1.75 2.409 1.167 4.288 2.819 5.637 4.955 1.363 2.121 2.083 4.614 2.159 7.477h-10.387c-.212-1.788-.818-3.189-1.818-4.204-.985-1.016-2.273-1.523-3.863-1.523-1.288 0-2.417.364-3.387 1.091-.97.712-1.727 1.773-2.273 3.182-.53 1.394-.795 3.121-.795 5.181 0 2.061.265 3.803.795 5.228.546 1.409 1.303 2.477 2.273 3.204.97.712 2.099 1.068 3.387 1.068 1.03 0 1.939-.219 2.727-.659.803-.439 1.462-1.083 1.977-1.931.515-.864.841-1.91.977-3.137h10.387c-.106 2.879-.826 5.394-2.159 7.546-1.319 2.151-3.175 3.825-5.569 5.022-2.378 1.182-5.204 1.773-8.477 1.773Zm41.597-35.568v8.182h-22.023v-8.182h22.023Zm-17.409-8.364h11.113v32.296c0 .682.106 1.235.319 1.659.227.409.553.704.977.886.424.167.932.25 1.523.25.424 0 .871-.038 1.34-.113a19.81 19.81 0 0 0 1.091-.228l1.682 8.023c-.53.152-1.28.341-2.25.568-.954.227-2.098.371-3.432.432-2.606.121-4.841-.182-6.704-.909-1.849-.743-3.265-1.894-4.25-3.455-.97-1.56-1.44-3.522-1.409-5.886v-33.523Zm59.352 28.205v-19.841h11.091V346h-10.591v-6.5h-.364c-.772 2.136-2.091 3.833-3.954 5.091-1.849 1.242-4.084 1.864-6.705 1.864-2.379 0-4.469-.546-6.273-1.637-1.803-1.091-3.204-2.613-4.204-4.568-1-1.97-1.508-4.273-1.523-6.909v-22.25h11.114v20.068c.015 1.894.515 3.386 1.5 4.477.985 1.091 2.326 1.637 4.023 1.637 1.106 0 2.098-.243 2.977-.728.894-.5 1.598-1.219 2.113-2.159.531-.954.796-2.106.796-3.454Zm48.642-9.182-10.205.273a3.802 3.802 0 0 0-.863-1.932c-.47-.576-1.084-1.023-1.841-1.341-.743-.333-1.606-.5-2.591-.5-1.288 0-2.386.258-3.295.773-.894.515-1.334 1.212-1.319 2.091-.015.681.258 1.272.819 1.772.575.5 1.598.902 3.068 1.205l6.727 1.273c3.485.666 6.076 1.772 7.773 3.318 1.712 1.545 2.575 3.591 2.591 6.136-.016 2.394-.728 4.477-2.137 6.25-1.394 1.773-3.303 3.152-5.727 4.137-2.424.969-5.197 1.454-8.318 1.454-4.985 0-8.917-1.023-11.796-3.068-2.863-2.061-4.5-4.818-4.909-8.273l10.978-.273c.242 1.273.871 2.243 1.886 2.91 1.015.666 2.311 1 3.886 1 1.425 0 2.584-.266 3.478-.796.893-.53 1.348-1.235 1.363-2.114-.015-.787-.363-1.416-1.045-1.886-.682-.485-1.75-.864-3.205-1.136l-6.091-1.159c-3.5-.637-6.106-1.811-7.818-3.523-1.712-1.727-2.561-3.924-2.545-6.591-.016-2.333.606-4.326 1.863-5.977 1.258-1.667 3.046-2.94 5.364-3.818 2.318-.879 5.053-1.319 8.204-1.319 4.728 0 8.455.993 11.182 2.978 2.728 1.969 4.235 4.681 4.523 8.136Zm-320.386 66.341v8.182h-22.455v-8.182h22.455ZM112.591 423v-36.682c0-2.697.507-4.932 1.523-6.704 1.015-1.788 2.424-3.122 4.227-4 1.803-.894 3.886-1.341 6.25-1.341 1.545 0 3 .121 4.364.363 1.378.228 2.401.432 3.068.614l-1.773 8.136a9.318 9.318 0 0 0-1.5-.341 10.62 10.62 0 0 0-1.636-.136c-1.303 0-2.197.288-2.682.864-.485.575-.727 1.363-.727 2.363V423h-11.114Zm38.29.659c-3.667 0-6.818-.75-9.455-2.25-2.621-1.515-4.644-3.621-6.068-6.318-1.409-2.712-2.114-5.856-2.114-9.432 0-3.591.705-6.735 2.114-9.432 1.424-2.712 3.447-4.818 6.068-6.318 2.637-1.515 5.788-2.273 9.455-2.273 3.666 0 6.81.758 9.431 2.273 2.637 1.5 4.66 3.606 6.069 6.318 1.424 2.697 2.136 5.841 2.136 9.432 0 3.576-.712 6.72-2.136 9.432-1.409 2.697-3.432 4.803-6.069 6.318-2.621 1.5-5.765 2.25-9.431 2.25Zm.068-8.386c1.333 0 2.462-.409 3.386-1.228.924-.818 1.629-1.954 2.114-3.409.5-1.454.75-3.136.75-5.045 0-1.939-.25-3.636-.75-5.091-.485-1.455-1.19-2.591-2.114-3.409-.924-.818-2.053-1.227-3.386-1.227-1.379 0-2.546.409-3.5 1.227-.94.818-1.659 1.954-2.159 3.409-.485 1.455-.728 3.152-.728 5.091 0 1.909.243 3.591.728 5.045.5 1.455 1.219 2.591 2.159 3.409.954.819 2.121 1.228 3.5 1.228ZM174.21 423v-34.909h10.796v6.364h.363c.637-2.303 1.675-4.016 3.114-5.137 1.439-1.136 3.114-1.704 5.023-1.704.515 0 1.045.038 1.591.113a9.002 9.002 0 0 1 1.522.296v9.659c-.53-.182-1.227-.326-2.091-.432a18.53 18.53 0 0 0-2.272-.159c-1.318 0-2.508.295-3.568.886a6.37 6.37 0 0 0-2.478 2.432c-.591 1.03-.886 2.243-.886 3.636V423H174.21Zm40.688 0v-34.909h10.568v6.409h.386c.728-2.121 1.955-3.795 3.682-5.023 1.727-1.227 3.788-1.841 6.182-1.841 2.424 0 4.5.622 6.227 1.864 1.727 1.242 2.826 2.909 3.296 5h.363c.652-2.076 1.925-3.735 3.818-4.977 1.894-1.258 4.129-1.887 6.705-1.887 3.303 0 5.985 1.061 8.045 3.182 2.061 2.106 3.091 5 3.091 8.682V423h-11.113v-20.955c0-1.742-.447-3.068-1.341-3.977-.894-.924-2.053-1.386-3.477-1.386-1.531 0-2.735.5-3.614 1.5-.864.985-1.296 2.31-1.296 3.977V423h-10.681v-21.068c0-1.621-.44-2.902-1.319-3.841-.878-.939-2.037-1.409-3.477-1.409-.97 0-1.826.235-2.568.704-.742.455-1.326 1.106-1.75 1.955-.409.848-.614 1.848-.614 3V423h-11.113Zm75.545.659c-3.666 0-6.818-.75-9.454-2.25-2.622-1.515-4.644-3.621-6.069-6.318-1.409-2.712-2.113-5.856-2.113-9.432 0-3.591.704-6.735 2.113-9.432 1.425-2.712 3.447-4.818 6.069-6.318 2.636-1.515 5.788-2.273 9.454-2.273 3.667 0 6.811.758 9.432 2.273 2.636 1.5 4.659 3.606 6.068 6.318 1.424 2.697 2.137 5.841 2.137 9.432 0 3.576-.713 6.72-2.137 9.432-1.409 2.697-3.432 4.803-6.068 6.318-2.621 1.5-5.765 2.25-9.432 2.25Zm.068-8.386c1.334 0 2.462-.409 3.387-1.228.924-.818 1.629-1.954 2.113-3.409.5-1.454.75-3.136.75-5.045 0-1.939-.25-3.636-.75-5.091-.484-1.455-1.189-2.591-2.113-3.409-.925-.818-2.053-1.227-3.387-1.227-1.378 0-2.545.409-3.5 1.227-.939.818-1.659 1.954-2.159 3.409-.485 1.455-.727 3.152-.727 5.091 0 1.909.242 3.591.727 5.045.5 1.455 1.22 2.591 2.159 3.409.955.819 2.122 1.228 3.5 1.228ZM313.773 423v-34.909h10.795v6.364h.364c.636-2.303 1.674-4.016 3.113-5.137 1.44-1.136 3.114-1.704 5.023-1.704.515 0 1.046.038 1.591.113a9.014 9.014 0 0 1 1.523.296v9.659c-.53-.182-1.227-.326-2.091-.432a18.546 18.546 0 0 0-2.273-.159c-1.318 0-2.507.295-3.568.886a6.375 6.375 0 0 0-2.477 2.432c-.591 1.03-.887 2.243-.887 3.636V423h-11.113Zm41.443.659c-3.652 0-6.803-.72-9.455-2.159-2.636-1.455-4.666-3.523-6.091-6.205-1.409-2.697-2.113-5.901-2.113-9.613 0-3.606.712-6.758 2.136-9.455 1.424-2.712 3.432-4.818 6.023-6.318 2.591-1.515 5.644-2.273 9.159-2.273 2.485 0 4.758.387 6.818 1.159 2.061.773 3.841 1.917 5.341 3.432s2.667 3.387 3.5 5.614c.833 2.212 1.25 4.75 1.25 7.614v2.772h-30.341v-6.454h20c-.015-1.182-.295-2.235-.841-3.159a5.7 5.7 0 0 0-2.25-2.159c-.939-.531-2.022-.796-3.25-.796-1.242 0-2.356.28-3.341.841a6.185 6.185 0 0 0-2.341 2.25c-.575.939-.878 2.008-.909 3.205v6.568c0 1.424.281 2.674.841 3.75a6.066 6.066 0 0 0 2.387 2.477c1.03.591 2.257.886 3.681.886.985 0 1.879-.136 2.682-.409a5.713 5.713 0 0 0 2.068-1.204 4.976 4.976 0 0 0 1.296-1.955l10.204.296c-.424 2.288-1.356 4.28-2.795 5.977-1.424 1.682-3.295 2.992-5.614 3.932-2.318.924-5 1.386-8.045 1.386ZM391.21 423v-34.909h11.114V423H391.21Zm5.568-38.977c-1.56 0-2.901-.515-4.022-1.546-1.122-1.045-1.682-2.303-1.682-3.772 0-1.455.56-2.697 1.682-3.728 1.121-1.045 2.462-1.568 4.022-1.568 1.576 0 2.917.523 4.023 1.568 1.121 1.031 1.682 2.273 1.682 3.728 0 1.469-.561 2.727-1.682 3.772-1.106 1.031-2.447 1.546-4.023 1.546Zm23.733 19.068V423h-11.113v-34.909h10.568v6.409h.386c.773-2.136 2.091-3.811 3.955-5.023 1.863-1.227 4.083-1.841 6.659-1.841 2.454 0 4.583.553 6.386 1.659 1.818 1.091 3.228 2.622 4.228 4.591 1.015 1.955 1.515 4.243 1.5 6.864V423h-11.114v-20.068c.015-1.94-.477-3.455-1.477-4.546-.985-1.091-2.356-1.636-4.114-1.636-1.167 0-2.197.258-3.091.773-.879.5-1.561 1.219-2.045 2.159-.47.939-.712 2.076-.728 3.409Zm49.29-15v8.182h-22.454v-8.182h22.454ZM452.028 423v-36.682c0-2.697.508-4.932 1.523-6.704 1.015-1.788 2.424-3.122 4.227-4 1.803-.894 3.887-1.341 6.25-1.341 1.546 0 3 .121 4.364.363 1.379.228 2.402.432 3.068.614l-1.772 8.136c-.41-.136-.91-.25-1.5-.341a10.632 10.632 0 0 0-1.637-.136c-1.303 0-2.197.288-2.682.864-.485.575-.727 1.363-.727 2.363V423h-11.114Zm38.29.659c-3.666 0-6.818-.75-9.454-2.25-2.622-1.515-4.644-3.621-6.069-6.318-1.409-2.712-2.113-5.856-2.113-9.432 0-3.591.704-6.735 2.113-9.432 1.425-2.712 3.447-4.818 6.069-6.318 2.636-1.515 5.788-2.273 9.454-2.273 3.667 0 6.811.758 9.432 2.273 2.636 1.5 4.659 3.606 6.068 6.318 1.424 2.697 2.137 5.841 2.137 9.432 0 3.576-.713 6.72-2.137 9.432-1.409 2.697-3.432 4.803-6.068 6.318-2.621 1.5-5.765 2.25-9.432 2.25Zm.068-8.386c1.334 0 2.462-.409 3.387-1.228.924-.818 1.629-1.954 2.113-3.409.5-1.454.75-3.136.75-5.045 0-1.939-.25-3.636-.75-5.091-.484-1.455-1.189-2.591-2.113-3.409-.925-.818-2.053-1.227-3.387-1.227-1.378 0-2.545.409-3.5 1.227-.939.818-1.659 1.954-2.159 3.409-.485 1.455-.727 3.152-.727 5.091 0 1.909.242 3.591.727 5.045.5 1.455 1.22 2.591 2.159 3.409.955.819 2.122 1.228 3.5 1.228Z"/>
</svg>
